<svg width="35" height="35" viewBox="0 0 35 35" fill="none" xmlns="http://www.w3.org/2000/svg">
<path d="M3.7603 0.0419946C2.31792 0.240237 1.08745 1.13574 0.44487 2.46875C-0.0336456 3.4668 0.000534058 2.36621 0.000534058 17.4736C0.000534058 32.5811 -0.0336456 31.4805 0.44487 32.4785C0.88237 33.3877 1.51128 34.0234 2.39311 34.4678C3.39116 34.96 2.86479 34.9326 10.5484 34.9531L17.4664 34.9805V28.958V22.9424H15.2789H13.0914V20.208V17.4736H15.272H17.4595L17.48 14.6846C17.5074 12.0322 17.5142 11.875 17.6646 11.3897C18.355 9.08594 20.0162 7.42481 22.3199 6.73438C22.8052 6.58399 22.9624 6.57715 25.6216 6.54981L28.4039 6.5293V9.25684V11.9912L26.6128 12.0117C24.9654 12.0391 24.7945 12.0527 24.5826 12.1758C24.4527 12.251 24.2886 12.4014 24.2066 12.5039C24.0699 12.6885 24.063 12.7842 24.0425 15.0879L24.022 17.4736H26.7632C29.354 17.4736 29.5113 17.4805 29.4703 17.5898C29.4429 17.6582 28.9576 18.8887 28.3833 20.3242L27.3443 22.9424H25.69H24.0289V28.9648V34.9805L27.6724 34.9531C31.6919 34.9258 31.5962 34.9326 32.5396 34.4678C33.4214 34.0234 34.0503 33.3877 34.4878 32.4785C34.9664 31.4805 34.9322 32.5811 34.9322 17.4736C34.9322 2.36621 34.9664 3.4668 34.4878 2.46875C34.0503 1.55957 33.4214 0.92383 32.5396 0.479495C31.5074 -0.0332007 32.854 0.0146508 17.7398 0.000978945C10.2749 -0.00585699 3.98589 0.0146508 3.7603 0.0419946Z" fill="#039BE5"/>
</svg>
