<svg width="169" height="74" viewBox="0 0 169 74" fill="none" xmlns="http://www.w3.org/2000/svg">
<path d="M0.222656 43.6738L3.23438 26.6113H9.24609C11.1055 26.6113 12.4648 27.0801 13.3242 28.0176C14.1914 28.9551 14.4844 30.2363 14.2031 31.8613C13.9141 33.4941 13.1602 34.7949 11.9414 35.7637C10.7305 36.7246 9.20312 37.2051 7.35938 37.2051H4.51172L3.375 43.6738H0.222656ZM4.92188 34.8848H7.57031C8.65625 34.8848 9.46484 34.6074 9.99609 34.0527C10.5273 33.498 10.8711 32.7832 11.0273 31.9082C11.1836 31.0332 11.0898 30.3301 10.7461 29.7988C10.4023 29.2676 9.6875 29.002 8.60156 29.002H5.96484L4.92188 34.8848ZM9.48047 43.6738L6.9375 35.8691L10.1016 35.5293L12.9141 43.6738H9.48047ZM14.8477 43.6738L17.8594 26.6113H28.8398L28.4062 29.084H20.5312L19.7109 33.7129H26.5195L26.0977 36.1035H19.2891L18.3984 41.2246H26.3906L25.957 43.6738H14.8477ZM28.3242 43.6738L31.3359 26.6113H34.4883L31.9102 41.2012H39.3398L38.8945 43.6738H28.3242ZM41.4844 35.6582L41.6719 34.627C42.1562 31.8848 43.2031 29.8105 44.8125 28.4043C46.4219 26.9902 48.2969 26.2832 50.4375 26.2832C52.5859 26.2832 54.2188 26.9902 55.3359 28.4043C56.4609 29.8105 56.7773 31.8848 56.2852 34.627L56.1094 35.6582C55.625 38.4004 54.5742 40.4785 52.957 41.8926C51.3477 43.2988 49.4688 44.002 47.3203 44.002C45.1797 44.002 43.5508 43.2988 42.4336 41.8926C41.3242 40.4785 41.0078 38.4004 41.4844 35.6582ZM44.6719 36.0098C44.3438 37.8691 44.4648 39.2598 45.0352 40.1816C45.6133 41.1035 46.5195 41.5645 47.7539 41.5645C48.9883 41.5645 50.0586 41.1035 50.9648 40.1816C51.8711 39.2598 52.4844 37.8691 52.8047 36.0098L53.1094 34.2754C53.4453 32.416 53.3203 31.0293 52.7344 30.1152C52.1562 29.1934 51.25 28.7324 50.0156 28.7324C48.7734 28.7324 47.7031 29.1934 46.8047 30.1152C45.9141 31.0293 45.3008 32.416 44.9648 34.2754L44.6719 36.0098ZM58.3594 35.6582L58.5469 34.627C59.0312 31.877 60.0703 29.8027 61.6641 28.4043C63.2656 26.998 65.1328 26.2949 67.2656 26.2949C69.3359 26.2949 70.8633 26.834 71.8477 27.9121C72.8398 28.9902 73.1836 30.3965 72.8789 32.1309L72.8203 32.4941H69.6797L69.75 32.0488C69.9297 31.0176 69.7812 30.209 69.3047 29.623C68.8359 29.0293 68.0117 28.7324 66.832 28.7324C65.6367 28.7324 64.5938 29.1699 63.7031 30.0449C62.8203 30.9199 62.2109 32.3184 61.875 34.2402L61.5586 36.0449C61.2383 37.8496 61.3594 39.2207 61.9219 40.1582C62.4844 41.0957 63.3789 41.5645 64.6055 41.5645C65.7305 41.5645 66.625 41.2598 67.2891 40.6504C67.9609 40.041 68.418 39.2168 68.6602 38.1777L68.7305 37.8027H71.8828L71.8008 38.2129C71.418 39.8926 70.5625 41.2754 69.2344 42.3613C67.9141 43.4473 66.2188 43.9902 64.1484 43.9902C61.9844 43.9902 60.3594 43.2832 59.2734 41.8691C58.1875 40.4551 57.8828 38.3848 58.3594 35.6582ZM71.3789 43.6738L80.6133 26.541H83.9062L87.1406 43.6738H83.8828L81.7734 31.3105C81.7266 31.0371 81.6914 30.7832 81.668 30.5488C81.6523 30.3066 81.6406 30.0645 81.6328 29.8223H81.5508C81.457 30.0645 81.3555 30.3066 81.2461 30.5488C81.1445 30.7832 81.0234 31.0371 80.8828 31.3105L74.4375 43.6738H71.3789ZM75.3164 39.7012L76.4414 37.3574L84.1289 37.3574L84.4336 39.7012H75.3164ZM88.3594 29.084L88.793 26.6113H102.105L101.672 29.084H96.5977L94.0312 43.6738H90.8555L93.4336 29.084H88.3594ZM101.051 43.6738L104.062 26.6113H115.043L114.609 29.084H106.734L105.914 33.7129H112.723L112.301 36.1035H105.492L104.602 41.2246H112.594L112.16 43.6738H101.051Z" fill="#0C3E8A"/>
<circle cx="8.81697" cy="8.81697" r="8.81697" transform="matrix(-0.740987 0.671519 -0.740987 -0.671519 141.316 11.9313)" fill="#48C7AA"/>
<rect width="17.6339" height="37.2272" transform="matrix(-0.740987 0.671519 -0.740987 -0.671519 162.367 31.0093)" fill="#48C7AA"/>
<circle cx="8.81697" cy="8.81697" r="8.81697" transform="matrix(0.738828 0.67347 -0.743139 0.669563 155.69 24.9583)" fill="#48C7AA"/>
<circle cx="8.81697" cy="8.81697" r="8.81697" transform="matrix(0.745342 0.667549 -0.736606 0.675466 128.277 49.9227)" fill="#48C7AA"/>
<rect width="17.6339" height="37.2272" transform="matrix(0.745342 0.667549 -0.736606 0.675466 149.204 30.7325)" fill="#48C7AA"/>
<circle cx="8.81697" cy="8.81697" r="8.81697" transform="matrix(0.738771 -0.673522 0.743196 0.669511 142.567 36.8191)" fill="#48C7AA"/>
</svg>
