<svg width="35" height="35" viewBox="0 0 35 35" fill="none" xmlns="http://www.w3.org/2000/svg">
<path d="M36.6372 6.732C36.2372 6.966 35.6672 7.182 35.4272 7.425C35.3372 7.506 35.2872 7.596 35.3072 7.686V8.613L35.0072 9.522L34.7072 10.422L34.3772 11.412L33.6972 13.437L33.0372 15.435L32.5372 16.938C32.5372 17.172 32.5272 17.406 32.5072 17.631C32.4372 18.495 32.2372 19.323 31.9172 20.097C31.7272 20.574 31.4972 21.033 31.2172 21.465C31.1172 21.636 30.9972 21.807 30.8772 21.969C30.4772 22.536 29.9972 23.058 29.4672 23.517C29.0572 23.886 28.6072 24.228 28.1172 24.516C28.1172 24.516 28.1172 24.516 28.1072 24.516C28.0272 24.579 27.9372 24.633 27.8372 24.678C27.5272 24.867 27.1972 25.029 26.8572 25.173C26.6272 25.281 26.3972 25.371 26.1572 25.452C26.1072 25.479 26.0472 25.497 25.9972 25.515C25.4272 25.758 24.7672 25.92 24.1072 26.001C24.0672 26.01 24.0372 26.01 23.9972 26.019C23.5972 26.082 23.2072 26.136 22.8072 26.163C22.6272 26.181 22.4372 26.19 22.2572 26.19L21.5472 26.154L18.1272 25.992C18.1272 25.983 18.1172 25.992 18.1172 25.992L16.3972 25.911C16.2672 25.911 16.1272 25.911 15.9972 25.902C15.4572 25.884 14.9372 25.83 14.4172 25.731C14.4072 25.731 14.4072 25.731 14.4072 25.731C13.4572 25.569 12.5472 25.281 11.6972 24.894C11.2272 24.678 10.7672 24.435 10.3372 24.156C10.1572 24.039 9.98719 23.913 9.81719 23.778C9.33719 23.418 8.90719 23.031 8.50719 22.635C8.44719 22.581 8.39719 22.527 8.34719 22.473C8.28719 22.419 8.22719 22.356 8.17719 22.302C7.79719 21.87 7.47719 21.429 7.21719 20.961C6.97719 20.547 6.78719 20.106 6.63719 19.62C6.57719 19.449 6.52719 19.287 6.48719 19.107C6.47719 19.098 6.46719 19.08 6.46719 19.062C6.36719 18.693 6.27719 18.306 6.22719 17.919C6.16719 17.622 6.13719 17.325 6.13719 17.019C6.11719 16.902 6.11719 16.776 6.11719 16.659L8.02719 14.004L9.89719 11.412L10.7472 10.233L11.5172 9.171L11.7772 8.802V7.875C11.7972 7.668 11.8072 7.452 11.7972 7.254C11.7872 6.624 11.6472 6.012 11.4172 5.427C11.1972 4.806 10.8872 4.221 10.5672 3.681C10.1872 3.06 9.78719 2.502 9.45719 1.998C8.96719 1.26 8.62719 0.657 8.71719 0.234C9.43719 0.0810002 10.1972 0 10.9672 0H26.9672C31.1472 0 34.7472 2.34 36.2372 5.634C36.3972 5.985 36.5372 6.354 36.6372 6.732Z" fill="#304FFE"/>
<path d="M36.9659 9V9.243L35.5859 9.963L34.7059 10.422L33.7359 10.926L31.7959 11.943L29.8959 12.933L27.9559 13.941L27.1859 14.346C27.1859 14.778 27.0659 15.174 26.8459 15.534C26.5359 16.056 26.0159 16.488 25.3559 16.857C24.6859 17.226 23.8659 17.523 22.9459 17.739C22.9459 17.739 22.9459 17.73 22.9359 17.739C19.3759 18.567 14.5159 18.189 12.1559 16.605C11.4959 16.164 11.0359 15.624 10.8359 15.003C10.7759 14.796 10.7459 14.571 10.7459 14.346V7.875C10.7559 7.74 10.6559 7.605 10.4759 7.47C9.93594 7.083 8.66594 6.714 7.24594 6.345C6.13594 6.066 4.94594 5.787 3.94594 5.517C3.15594 5.301 2.48594 5.085 2.08594 4.878C2.26594 4.563 2.47594 4.248 2.69594 3.951C4.09594 2.106 6.23594 0.747 8.71594 0.234C9.43594 0.0810002 10.1959 0 10.9659 0H21.7659C27.1359 0.846 32.0859 2.817 36.2359 5.634C36.3959 5.985 36.5359 6.354 36.6359 6.732C36.8159 7.326 36.9259 7.938 36.9559 8.577C36.9659 8.712 36.9659 8.856 36.9659 9Z" fill="#4928F4"/>
<path d="M36.9667 9.0003V12.9693L36.7467 13.5813L35.9967 15.6783L35.2167 17.8383L34.8067 18.9903L34.4267 20.0613L34.0567 21.0783L33.6967 22.0863L33.5067 22.6173L33.2567 23.3193C33.2567 24.0033 33.2367 24.6063 33.1867 25.1193C33.1767 25.1733 33.1667 25.2273 33.1667 25.2813C33.1067 25.7583 33.0267 26.1633 32.8967 26.5053C32.8867 26.5593 32.8667 26.6133 32.8467 26.6583C32.5867 27.3063 32.1967 27.7203 31.6167 27.9903C31.4767 28.0623 31.3167 28.1163 31.1467 28.1703C30.6167 28.3323 29.9467 28.4133 29.1267 28.4583C28.5267 28.4943 27.8367 28.5033 27.0567 28.5033H26.3667L25.1767 28.4583L24.9667 28.4493L22.7967 28.3683L20.5967 28.2873L13.3467 28.0173L11.4667 27.9453H11.2067C10.4267 27.9363 9.75672 27.8913 9.17672 27.8193C8.33672 27.7023 7.68672 27.5043 7.19672 27.2073C6.49672 26.8023 6.08672 26.2083 5.84672 25.3803C5.78672 25.1823 5.73672 24.9753 5.70672 24.7503C5.60672 24.2283 5.55672 23.6253 5.52672 22.9503C5.52672 22.8153 5.52672 22.6803 5.51672 22.5363C5.50672 22.5273 5.51672 22.5273 5.51672 22.5273V22.0053C5.50672 21.7443 5.50672 21.4743 5.50672 21.1953L5.55672 19.7463L5.58672 18.7113L5.62672 17.5053V17.3343L5.69672 15.1203L5.76672 12.9063L5.83672 10.8273L5.89672 8.7843L5.91672 8.2443C5.91672 7.9653 4.86672 7.8033 3.69672 7.6683C2.76672 7.5603 1.74672 7.4613 1.13672 7.3353C1.18672 7.1283 1.23672 6.9213 1.29672 6.7233C1.47672 6.0753 1.74672 5.4633 2.08672 4.8783C2.26672 4.5633 2.47672 4.2483 2.69672 3.9513C4.85672 3.0963 7.10672 2.4303 9.45672 1.9983C11.5167 1.6113 13.6667 1.4043 15.8867 1.4043C23.2467 1.4043 30.0467 3.6453 35.4267 7.4253C35.9467 7.7853 36.4567 8.1723 36.9567 8.5773C36.9667 8.7123 36.9667 8.8563 36.9667 9.0003Z" fill="#6200EA"/>
<path d="M36.9668 11.132V15.218L36.4168 16.172L35.3668 18.017L34.8068 18.989L34.2968 19.88L34.0768 20.267C34.0768 20.546 34.0768 20.816 34.0568 21.077C34.0568 21.464 34.0368 21.833 34.0068 22.175C33.9668 22.58 33.9068 22.949 33.8468 23.291C33.6968 24.002 33.4868 24.614 33.1868 25.118C33.1468 25.181 33.1068 25.244 33.0668 25.298C32.9568 25.46 32.8268 25.613 32.6868 25.757C32.5068 25.955 32.3068 26.126 32.0768 26.27C31.7368 26.504 31.3368 26.693 30.8768 26.837C30.3068 27.026 29.6468 27.152 28.8668 27.224C28.3568 27.269 27.7968 27.296 27.1868 27.296L26.7668 27.314L24.6868 27.422H24.6768L22.4668 27.539L20.2168 27.656L17.1168 27.818L13.3468 28.016L12.7968 28.043C12.2868 28.043 11.8068 28.016 11.3468 27.962C11.2968 27.953 11.2568 27.944 11.2068 27.944C10.5268 27.845 9.9068 27.683 9.3468 27.458C8.6668 27.188 8.0768 26.828 7.5768 26.396C7.1368 26.009 6.7568 25.568 6.4468 25.073C6.3768 24.956 6.3068 24.848 6.2468 24.722C5.9468 24.191 5.7068 23.597 5.5268 22.949C5.4968 22.841 5.4668 22.724 5.4468 22.607C5.3868 22.4 5.3368 22.184 5.3068 21.959C5.1968 21.383 5.1368 20.771 5.1068 20.132V20.123C5.0968 19.862 5.0868 19.61 5.0868 19.34L4.5968 18.287L4.5268 18.125L4.4668 17.99L3.7168 16.379L3.5968 16.118L2.8768 14.561L2.0768 12.824C2.0768 12.824 2.0768 12.824 2.0668 12.824L1.2568 11.069L0.966797 10.43V8.99905C0.966797 8.43205 1.0268 7.87405 1.1368 7.33405C1.1868 7.12705 1.2368 6.92005 1.2968 6.72205C2.1468 6.28105 3.0368 5.87605 3.9468 5.51605C6.0268 4.67905 8.2568 4.05805 10.5668 3.68005C12.2868 3.40105 14.0768 3.24805 15.8868 3.24805C23.1968 3.24805 29.8268 5.63305 35.0068 9.52105C35.2068 9.66505 35.3968 9.80905 35.5868 9.96205C36.0568 10.331 36.5168 10.718 36.9668 11.132Z" fill="#673AB7"/>
<path d="M36.9668 13.8155V18.4415L36.3968 19.5125L35.3168 21.5375L35.3068 21.5645C35.3068 21.9515 35.2868 22.3025 35.2568 22.6175C35.1568 23.6525 34.8768 24.3095 34.4168 24.7145C34.0868 25.0205 33.6768 25.1915 33.1668 25.2815C33.1368 25.2905 33.0968 25.2905 33.0668 25.2995C32.9068 25.3265 32.7368 25.3445 32.5568 25.3445C31.9368 25.3985 31.2068 25.3625 30.3668 25.3085C30.2768 25.3085 30.1768 25.2995 30.0768 25.2905C29.4668 25.2545 28.8168 25.2185 28.0968 25.1915C27.7068 25.1825 27.2968 25.1735 26.8768 25.1735H26.8568L25.8468 25.2455H25.8368L23.5668 25.3895L20.9768 25.5695L20.5968 25.5965L17.5668 25.7945L15.9968 25.9025L14.4468 26.0015C14.1768 26.0015 13.9168 26.0015 13.6568 25.9925C13.6568 25.9925 13.6468 25.9835 13.6468 25.9925C12.5168 25.9745 11.5068 25.9115 10.6068 25.7585C9.7768 25.6325 9.0468 25.4345 8.4268 25.1375C7.7868 24.8585 7.2568 24.4625 6.8268 23.9585C6.4168 23.4635 6.1168 22.8425 5.9268 22.0955C5.9268 22.0865 5.9268 22.0865 5.9268 22.0865C5.7868 21.4835 5.7068 20.7815 5.7068 19.9895L5.5568 19.7465L4.6668 18.3155L4.5368 18.1175L4.4668 17.9915L3.5368 16.5065L3.0768 15.7595L2.4968 14.8325L1.4968 13.2215L0.966797 12.3755V9.06352C1.8468 8.54152 2.7568 8.08252 3.6968 7.66852C4.8368 7.14652 6.0168 6.70552 7.2468 6.34552C8.5868 5.94952 9.9868 5.63452 11.4168 5.42752C12.8668 5.21152 14.3568 5.10352 15.8868 5.10352C22.6868 5.10352 28.9268 7.29051 33.7368 10.9265C33.9568 11.0795 34.1668 11.2505 34.3768 11.4125C35.2168 12.0875 36.0168 12.8165 36.7468 13.5815C36.8268 13.6625 36.9068 13.7345 36.9668 13.8155Z" fill="#8E24AA"/>
<path d="M36.9668 16.8383V23.3453C36.7268 23.2193 36.3968 23.0663 35.9868 22.9043C35.7668 22.8053 35.5168 22.7063 35.2568 22.6163C34.8768 22.4633 34.4668 22.3193 34.0068 22.1753C33.9068 22.1393 33.8068 22.1123 33.6968 22.0853C33.5168 22.0223 33.3268 21.9683 33.1368 21.9143C32.5468 21.7523 31.8968 21.5993 31.2168 21.4643C30.9568 21.4193 30.6868 21.3743 30.4168 21.3383C29.5468 21.2033 28.6168 21.1223 27.6468 21.1133C27.5668 21.1043 27.4768 21.1043 27.3968 21.1043L24.8268 21.1223L21.3268 21.1403H21.3168L13.8268 21.1943C11.4468 21.1943 9.9868 21.7073 9.1068 21.9143C9.1068 21.9143 9.0968 21.9143 9.0968 21.9233C8.1668 22.1393 7.8768 22.0043 7.7968 20.5373C7.7768 20.1323 7.7668 19.6103 7.7668 18.9713L7.2068 18.5843L6.2268 17.9183L5.6268 17.5043L5.5068 17.4233L3.8468 16.2893L3.5968 16.1183L3.0768 15.7583L2.1168 15.1103L0.966797 14.3183V11.2583C1.0668 11.1863 1.1568 11.1233 1.2568 11.0693C2.7068 10.1693 4.2568 9.40427 5.8968 8.78327C7.3568 8.22527 8.8968 7.78427 10.4768 7.46927C10.9068 7.38827 11.3468 7.30727 11.7968 7.25327C13.1268 7.04627 14.4968 6.94727 15.8868 6.94727C21.8968 6.94727 27.4168 8.82827 31.7968 11.9423C32.4568 12.4103 33.0968 12.9053 33.6968 13.4363C34.5168 14.1383 35.2868 14.8853 35.9968 15.6773C36.1368 15.8393 36.2768 16.0013 36.4168 16.1723C36.6068 16.3883 36.7868 16.6133 36.9668 16.8383Z" fill="#C2185B"/>
<path d="M36.9668 20.4487V23.4007C36.9668 23.9857 36.9068 24.5617 36.7868 25.1197C36.6068 25.9477 36.2968 26.7397 35.8768 27.4777C35.6568 27.5227 35.4068 27.5227 35.1268 27.4867C34.4968 27.3877 33.7568 27.0907 32.9568 26.7037C32.9168 26.6947 32.8768 26.6767 32.8468 26.6587C32.5968 26.5417 32.3368 26.4157 32.0768 26.2717C31.5468 26.0107 30.9868 25.7227 30.4268 25.4527C30.3068 25.3987 30.1868 25.3447 30.0768 25.2907C29.4368 24.9937 28.7768 24.7237 28.1168 24.5167C28.1168 24.5167 28.1168 24.5167 28.1068 24.5167C27.9668 24.4717 27.8168 24.4267 27.6668 24.3907C27.0968 24.2467 26.5168 24.1567 25.9568 24.1567L24.8568 23.8687L19.9868 22.5997C19.9868 22.5997 19.9868 22.5997 19.9768 22.5997L16.9868 21.8167H16.9768L15.6768 21.4747C11.9168 21.4747 9.6068 22.9147 8.4868 22.3657C8.0468 22.1587 7.7868 21.6367 7.6968 20.6107C7.6668 20.3227 7.6568 19.9987 7.6568 19.6207L6.4868 19.1077L6.4368 19.0897H6.4268L5.5868 18.7117L4.6668 18.3157L4.5968 18.2887L4.4268 18.2077L2.4668 17.3527L0.966797 16.6957V13.6087C1.1368 13.4737 1.3168 13.3477 1.4968 13.2217C1.6868 13.0867 1.8768 12.9607 2.0668 12.8257C2.0768 12.8257 2.0768 12.8257 2.0768 12.8257C3.2568 12.0607 4.5068 11.3857 5.8368 10.8277C7.3868 10.1617 9.0368 9.64873 10.7468 9.31573C10.9968 9.26173 11.2568 9.20774 11.5168 9.17174C12.9368 8.92874 14.3968 8.80273 15.8868 8.80273C21.1568 8.80273 25.9968 10.3417 29.8968 12.9337C31.0268 13.6897 32.0768 14.5267 33.0368 15.4357C33.8268 16.1827 34.5568 16.9927 35.2168 17.8387C35.2668 17.9017 35.3168 17.9647 35.3668 18.0187C35.7368 18.5047 36.0768 18.9997 36.3968 19.5127C36.6068 19.8187 36.7868 20.1337 36.9668 20.4487Z" fill="#D81B60"/>
<path d="M36.7868 25.1185C36.6068 25.9465 36.2968 26.7385 35.8768 27.4765C35.6868 27.8095 35.4768 28.1245 35.2468 28.4305C35.1068 28.6195 34.9568 28.7995 34.8068 28.9705C34.4468 28.8445 33.9168 28.6645 33.2668 28.4665C33.2668 28.4665 33.2668 28.4665 33.2668 28.4575C32.7768 28.3045 32.2168 28.1425 31.6168 27.9895C31.4468 27.9445 31.2768 27.8995 31.0968 27.8545C30.3868 27.6835 29.6468 27.5305 28.9268 27.4405C28.3268 27.3505 27.7368 27.2965 27.1868 27.2965L26.7268 27.1795H26.7168L24.2968 26.5495L22.8068 26.1625L21.1468 25.7305H21.1368L20.5968 25.5955L14.0668 23.9035L12.1868 23.4175L10.7868 23.1205L8.5068 22.6345L8.2268 22.5715C8.2268 22.5715 8.2268 22.5715 8.2168 22.5715L5.9268 22.0945C5.9268 22.0855 5.9268 22.0855 5.9268 22.0855L5.5168 22.0045L5.3068 21.9595L3.6368 21.6085L3.4468 21.5635L2.0268 20.5105L0.966797 19.7095V16.0375C1.3368 15.7135 1.7168 15.4075 2.1168 15.1105C2.2368 15.0115 2.3668 14.9215 2.4968 14.8315C2.6168 14.7415 2.7468 14.6515 2.8768 14.5615C3.7868 13.9405 4.7468 13.3825 5.7668 12.9055C7.0668 12.2755 8.4468 11.7715 9.8968 11.4115C10.1768 11.3305 10.4568 11.2585 10.7468 11.2045C12.3868 10.8355 14.1068 10.6465 15.8868 10.6465C20.3568 10.6465 24.5168 11.8615 27.9568 13.9405C29.6668 14.9755 31.2068 16.2175 32.5068 17.6305C33.1668 18.3415 33.7668 19.0885 34.2968 19.8805C34.3468 19.9435 34.3868 19.9975 34.4268 20.0605C34.7468 20.5375 35.0468 21.0325 35.3168 21.5365C35.5668 21.9865 35.7868 22.4365 35.9868 22.9045C36.3068 23.6245 36.5668 24.3625 36.7868 25.1185Z" fill="#F50057"/>
<path d="M35.2468 28.432C35.1068 28.621 34.9568 28.801 34.8068 28.972C34.3668 29.467 33.8868 29.917 33.3468 30.313C32.8768 30.664 32.3768 30.979 31.8468 31.249C31.6468 31.204 31.4468 31.15 31.2368 31.078C30.5768 30.871 29.8868 30.529 29.2468 30.169C28.2868 29.62 27.4568 29.026 27.0868 28.756C26.9468 28.648 26.8768 28.594 26.8768 28.594L25.1768 28.459L24.9668 28.441L22.7668 28.27L20.4868 28.09L17.1168 27.82L11.7768 27.397L11.7568 27.388L9.8768 26.569L7.9768 25.741L6.4468 25.075L6.1168 24.931L5.7068 24.751L4.2868 24.13L2.3968 23.311L1.8068 23.05L0.966797 22.816V18.793C1.4368 18.289 1.9368 17.812 2.4668 17.353C2.8068 17.065 3.1668 16.777 3.5368 16.507C3.5968 16.462 3.6568 16.417 3.7168 16.381C3.7568 16.336 3.8068 16.309 3.8468 16.291C4.4368 15.859 5.0568 15.472 5.6968 15.121C6.4368 14.698 7.2168 14.32 8.0268 14.005C8.8968 13.654 9.8068 13.357 10.7468 13.132C12.3768 12.718 14.1068 12.502 15.8868 12.502C19.9668 12.502 23.7368 13.618 26.8468 15.535C28.8368 16.759 30.5568 18.307 31.9168 20.098C32.3668 20.674 32.7668 21.286 33.1368 21.916C33.2668 22.15 33.3968 22.384 33.5068 22.618C33.6268 22.843 33.7368 23.068 33.8468 23.293C34.0568 23.761 34.2468 24.229 34.4168 24.715C34.7368 25.615 34.9768 26.533 35.1268 27.487C35.1768 27.802 35.2168 28.117 35.2468 28.432Z" fill="#FF1744"/>
<path d="M33.3568 30.0777C33.3568 30.1497 33.3568 30.2307 33.3468 30.3117C32.8768 30.6627 32.3768 30.9777 31.8468 31.2477C31.6268 31.3557 31.4068 31.4637 31.1768 31.5537C30.9468 31.6527 30.7168 31.7427 30.4768 31.8237C30.1368 31.6617 29.6768 31.4637 29.1868 31.2747C28.4968 30.9957 27.7468 30.7437 27.1668 30.6627C27.0268 30.6357 26.8968 30.6267 26.7768 30.6267L25.1368 30.4377H25.1168L23.0768 30.1947L21.0168 29.9517L20.0568 29.8437L12.4968 28.9617C12.0068 28.9617 11.4868 28.9347 10.9468 28.8717C10.2868 28.8177 9.5968 28.7277 8.9068 28.6017C8.2268 28.4937 7.5368 28.3497 6.8768 28.1967C6.1868 28.0527 5.5068 27.8817 4.8768 27.7197C4.1468 27.5217 3.4668 27.3327 2.8968 27.1617C2.4268 27.0267 2.0268 26.9007 1.7168 26.8017C1.5368 26.4147 1.3868 26.0097 1.2768 25.5957C1.0668 24.8937 0.966797 24.1557 0.966797 23.3997V21.8967C1.2868 21.4197 1.6368 20.9517 2.0268 20.5107C2.7368 19.6647 3.5468 18.8907 4.4268 18.2067C4.4568 18.1707 4.4968 18.1437 4.5268 18.1257L4.5368 18.1167C4.8468 17.8647 5.1668 17.6397 5.5068 17.4237C5.5468 17.3877 5.5868 17.3607 5.6268 17.3337C5.7868 17.2257 5.9568 17.1177 6.1368 17.0187C7.5668 16.1457 9.1468 15.4617 10.8368 15.0027C12.4368 14.5707 14.1268 14.3457 15.8868 14.3457C19.3768 14.3457 22.6368 15.2727 25.3568 16.8567C27.3668 18.0177 29.0968 19.5477 30.4168 21.3387C30.5768 21.5457 30.7268 21.7527 30.8768 21.9687C31.5668 23.0217 32.1368 24.1557 32.5568 25.3437C32.6068 25.4787 32.6468 25.6137 32.6868 25.7577C32.7668 26.0007 32.8368 26.2527 32.8968 26.5047C32.9168 26.5677 32.9368 26.6307 32.9568 26.7027C33.0968 27.2697 33.1968 27.8637 33.2668 28.4577C33.2668 28.4667 33.2668 28.4667 33.2668 28.4667C33.3268 28.9977 33.3568 29.5377 33.3568 30.0777Z" fill="#FF5722"/>
<path d="M31.2973 30.0772C31.2973 30.3922 31.2773 30.7342 31.2373 31.0762C31.2173 31.2382 31.1973 31.4002 31.1773 31.5532C30.9473 31.6522 30.7173 31.7422 30.4773 31.8232C30.0273 31.9762 29.5673 32.1022 29.0973 32.1922C28.7773 32.2552 28.4473 32.3092 28.1173 32.3362H28.1073C27.7973 32.1652 27.4373 31.9582 27.0673 31.7242C26.3973 31.3012 25.6973 30.8242 25.1373 30.4372C25.1273 30.4282 25.1273 30.4282 25.1173 30.4192C24.5273 30.0142 24.1073 29.7082 24.1073 29.7082L23.0473 29.7442L21.0073 29.8072L20.0573 29.8432L16.2373 29.9692L13.0073 30.0772C12.7973 30.0862 12.5473 30.0862 12.2373 30.0772H12.2273C11.8073 30.0682 11.3073 30.0412 10.7573 29.9962C10.1173 29.9512 9.41734 29.8972 8.70734 29.8342C8.01734 29.7622 7.31734 29.6902 6.64734 29.6182C5.90734 29.5462 5.20734 29.4652 4.60734 29.3932C4.13734 29.3392 3.72734 29.2942 3.39734 29.2582C3.11734 28.9702 2.86734 28.6732 2.62734 28.3492C2.26734 27.8632 1.95734 27.3502 1.71734 26.8012C1.53734 26.4142 1.38734 26.0092 1.27734 25.5952C1.56734 24.7942 1.94734 24.0382 2.39734 23.3092C2.75734 22.7152 3.17734 22.1482 3.63734 21.6082C4.08734 21.0772 4.57734 20.5822 5.10734 20.1322V20.1232C5.25734 19.9882 5.40734 19.8622 5.55734 19.7452C5.83734 19.5112 6.12734 19.2952 6.42734 19.0882H6.43734C6.44734 19.0702 6.45734 19.0702 6.46734 19.0612C6.70734 18.8902 6.95734 18.7372 7.20734 18.5842C8.68734 17.6752 10.3573 17.0002 12.1573 16.6042C13.3473 16.3432 14.5973 16.1992 15.8873 16.1992C18.4273 16.1992 20.8273 16.7482 22.9373 17.7382H22.9473C24.7573 18.5752 26.3573 19.7272 27.6473 21.1132C28.3573 21.8512 28.9673 22.6612 29.4673 23.5162C29.8173 24.0922 30.1173 24.6952 30.3673 25.3072C30.3873 25.3612 30.4073 25.4062 30.4273 25.4512C30.5973 25.9012 30.7473 26.3692 30.8773 26.8372C30.9673 27.1702 31.0373 27.5122 31.0973 27.8542C31.1173 27.9622 31.1373 28.0612 31.1473 28.1692C31.2473 28.7902 31.2973 29.4292 31.2973 30.0772Z" fill="#FF6F00"/>
<path d="M29.247 30.0787V30.1687C29.247 30.4747 29.217 30.8617 29.187 31.2757C29.157 31.5817 29.127 31.8967 29.097 32.1937C28.777 32.2567 28.447 32.3107 28.117 32.3377H28.107C27.727 32.3827 27.357 32.4007 26.967 32.4007H25.217L24.837 32.3017L22.867 31.7617L20.867 31.2217L16.237 29.9707L14.237 29.4307C14.237 29.4307 13.407 29.7277 12.237 30.0787H12.227C11.777 30.2137 11.287 30.3577 10.767 30.5017C10.117 30.6727 9.42695 30.8437 8.74695 30.9787C8.04695 31.1227 7.35695 31.2307 6.73695 31.2757C6.54695 31.2937 6.35695 31.3027 6.18695 31.3027C5.62695 31.0237 5.08695 30.6907 4.59695 30.3217C4.16695 29.9977 3.76695 29.6467 3.39695 29.2597C3.11695 28.9717 2.86695 28.6747 2.62695 28.3507C2.69695 27.9457 2.77695 27.5497 2.89695 27.1627C3.19695 26.0917 3.66695 25.0657 4.28695 24.1297C4.62695 23.5987 5.00695 23.0857 5.44695 22.6087C5.45695 22.5817 5.48695 22.5547 5.51695 22.5367C5.50695 22.5277 5.51695 22.5277 5.51695 22.5277C5.64695 22.3747 5.78695 22.2307 5.92695 22.0957C5.92695 22.0867 5.92695 22.0867 5.92695 22.0867C6.33695 21.6907 6.75695 21.3127 7.21695 20.9617C7.37695 20.8447 7.52695 20.7277 7.69695 20.6107C7.72695 20.5837 7.75695 20.5657 7.79695 20.5387C10.047 18.9907 12.857 18.0547 15.887 18.0547C19.327 18.0547 22.457 19.2157 24.827 21.1237C25.967 22.0507 26.937 23.1577 27.667 24.3907C27.727 24.4807 27.787 24.5797 27.837 24.6787C27.927 24.8407 28.017 25.0117 28.097 25.1917C28.427 25.8397 28.687 26.5237 28.867 27.2257C28.887 27.2977 28.907 27.3697 28.927 27.4417C29.007 27.7747 29.077 28.1167 29.127 28.4587C29.207 28.9897 29.247 29.5297 29.247 30.0787Z" fill="#FF9800"/>
<path d="M27.1862 30.0774C27.1862 30.2574 27.1762 30.4554 27.1662 30.6624C27.1462 30.9954 27.1162 31.3554 27.0662 31.7244C27.0462 31.9494 27.0062 32.1744 26.9662 32.3994H21.4862L20.4262 32.2464L16.2862 31.6524L15.6962 31.5714L14.3462 31.3734C13.7562 31.3734 12.4762 31.6074 11.1262 31.8324C10.4162 31.9494 9.69617 32.0754 9.04617 32.1564C8.96617 32.1654 8.88617 32.1744 8.81617 32.1834H8.80617C8.10617 32.0484 7.42617 31.8414 6.78617 31.5714C6.58617 31.4904 6.38617 31.4004 6.18617 31.3014C5.62617 31.0224 5.08617 30.6894 4.59617 30.3204C4.58617 30.2124 4.57617 30.1224 4.57617 30.0774C4.57617 29.8434 4.58617 29.6184 4.60617 29.3934C4.64617 28.8174 4.73617 28.2594 4.87617 27.7194C5.09617 26.9004 5.41617 26.1084 5.84617 25.3794C5.92617 25.2264 6.01617 25.0734 6.11617 24.9294C6.15617 24.8574 6.20617 24.7944 6.24617 24.7224C6.42617 24.4614 6.62617 24.2094 6.82617 23.9574C7.24617 23.4624 7.71617 22.9944 8.21617 22.5714C8.22617 22.5714 8.22617 22.5714 8.22617 22.5714C8.26617 22.5354 8.30617 22.4994 8.34617 22.4724C8.39617 22.4364 8.43617 22.3914 8.48617 22.3644C8.68617 22.2024 8.88617 22.0584 9.09617 21.9234C9.09617 21.9144 9.10617 21.9144 9.10617 21.9144C10.9962 20.6454 13.3362 19.8984 15.8862 19.8984C17.8662 19.8984 19.7062 20.3484 21.3162 21.1404H21.3262C22.7062 21.8244 23.9062 22.7514 24.8562 23.8674C25.2262 24.2994 25.5562 24.7584 25.8362 25.2444H25.8462C25.8962 25.3344 25.9462 25.4244 25.9962 25.5144C26.2962 26.0454 26.5362 26.6034 26.7162 27.1794H26.7262C26.7362 27.2244 26.7562 27.2694 26.7662 27.3144C26.8862 27.7014 26.9862 28.0974 27.0562 28.5024C27.0662 28.5834 27.0762 28.6734 27.0862 28.7544C27.1562 29.1864 27.1862 29.6274 27.1862 30.0774Z" fill="#FFC107"/>
<path d="M25.1367 29.9799C25.1367 30.1239 25.1367 30.2769 25.1167 30.4209V30.4299C25.1167 30.4389 25.1167 30.4389 25.1167 30.4389C25.0967 31.0869 24.9967 31.7259 24.8367 32.3019C24.8367 32.3379 24.8267 32.3649 24.8067 32.4009H20.1367L16.2867 31.6539L15.7767 31.5549L15.6967 31.5729L11.4267 32.3649L11.2367 32.4009H10.9667C10.3267 32.4009 9.69672 32.3469 9.08672 32.2389C8.99672 32.2209 8.90672 32.2029 8.81672 32.1849H8.80672C8.10672 32.0499 7.42672 31.8429 6.78672 31.5729C6.76672 31.4739 6.74672 31.3749 6.73672 31.2759C6.66672 30.8889 6.63672 30.4839 6.63672 30.0789C6.63672 29.9259 6.63672 29.7729 6.64672 29.6199C6.67672 29.1339 6.75672 28.6569 6.87672 28.1979C6.95672 27.8559 7.06672 27.5229 7.19672 27.2079C7.30672 26.9289 7.43672 26.6589 7.57672 26.3979C7.69672 26.1729 7.83672 25.9569 7.97672 25.7409C8.11672 25.5339 8.26672 25.3359 8.42672 25.1379C8.82672 24.6429 9.29672 24.1839 9.81672 23.7789C10.1167 23.5449 10.4467 23.3199 10.7867 23.1219C12.2467 22.2579 13.9967 21.7539 15.8867 21.7539C16.2567 21.7539 16.6167 21.7719 16.9667 21.8169H16.9867C18.0567 21.9249 19.0567 22.1949 19.9767 22.5999C19.9867 22.5999 19.9867 22.5999 19.9867 22.5999C21.4367 23.2389 22.6667 24.2019 23.5667 25.3899C23.7167 25.5879 23.8667 25.8039 23.9967 26.0199C24.1067 26.1909 24.2067 26.3709 24.2967 26.5509C24.4367 26.8299 24.5667 27.1269 24.6767 27.4239H24.6867C24.7967 27.7569 24.8967 28.0899 24.9667 28.4409V28.4499C25.0767 28.9449 25.1367 29.4579 25.1367 29.9799Z" fill="#FFD54F"/>
<path d="M23.0775 30.1675V30.1945C23.0775 30.7255 23.0075 31.2475 22.8675 31.7605C22.8175 31.9765 22.7475 32.1925 22.6575 32.3995H18.1775L15.8875 31.8325L13.5975 32.3995H10.9675C10.3275 32.3995 9.6975 32.3455 9.0875 32.2375C9.0675 32.2105 9.0575 32.1835 9.0475 32.1565C8.9075 31.7695 8.7975 31.3825 8.7475 30.9775C8.7075 30.7165 8.6875 30.4465 8.6875 30.1675C8.6875 30.0595 8.6875 29.9425 8.7075 29.8345C8.7175 29.4115 8.7875 28.9975 8.9075 28.6015C8.9675 28.3315 9.0575 28.0705 9.1775 27.8185C9.2175 27.6925 9.2775 27.5755 9.3475 27.4585C9.4975 27.1525 9.6775 26.8555 9.8775 26.5675C10.0975 26.2795 10.3375 26.0095 10.6075 25.7575C10.9275 25.4335 11.2875 25.1365 11.6975 24.8935C12.3975 24.4345 13.1975 24.0925 14.0675 23.9035C14.6475 23.7595 15.2575 23.6875 15.8875 23.6875C17.8875 23.6875 19.6775 24.4075 20.9775 25.5685C21.0275 25.6135 21.0875 25.6675 21.1375 25.7305H21.1475C21.2875 25.8655 21.4175 26.0005 21.5475 26.1535C21.9175 26.5765 22.2275 27.0355 22.4675 27.5395C22.5875 27.7735 22.6875 28.0165 22.7675 28.2685C22.7775 28.3045 22.7875 28.3315 22.7975 28.3675C22.9375 28.8085 23.0275 29.2675 23.0475 29.7445C23.0675 29.8795 23.0775 30.0235 23.0775 30.1675Z" fill="#FFE082"/>
<path d="M21.0261 30.167C21.0261 30.536 20.9761 30.887 20.8661 31.22C20.7661 31.58 20.6161 31.922 20.4261 32.246C20.3961 32.3 20.3261 32.399 20.3261 32.399H11.4461C11.4361 32.39 11.4261 32.372 11.4261 32.363C11.3061 32.192 11.2061 32.021 11.1261 31.832C10.9261 31.418 10.8061 30.968 10.7661 30.5C10.7461 30.392 10.7461 30.275 10.7461 30.167C10.7461 30.113 10.7461 30.05 10.7561 29.996C10.7661 29.6 10.8261 29.222 10.9461 28.871C11.0461 28.547 11.1761 28.25 11.3461 27.962C11.3461 27.962 11.3561 27.953 11.3561 27.944C11.4761 27.755 11.6061 27.566 11.7561 27.386C12.2461 26.792 12.8961 26.306 13.6461 25.991C13.6561 25.991 13.6561 25.991 13.6561 25.991C13.8961 25.883 14.1461 25.793 14.4061 25.73C14.4061 25.73 14.4061 25.73 14.4161 25.73C14.8761 25.604 15.3761 25.541 15.8861 25.541C16.4761 25.541 17.0461 25.622 17.5661 25.793C17.7561 25.838 17.9361 25.91 18.1161 25.991C18.1161 25.991 18.1161 25.991 18.1261 25.991C18.9861 26.36 19.7161 26.936 20.2161 27.656C20.3161 27.791 20.4061 27.935 20.4861 28.088C20.5261 28.151 20.5661 28.223 20.5961 28.286C20.8261 28.754 20.9661 29.267 21.0061 29.807C21.0161 29.852 21.0161 29.897 21.0161 29.951C21.0261 30.023 21.0261 30.095 21.0261 30.167Z" fill="#FFECB3"/>
<path d="M24.9668 4.5H12.9668C9.0668 4.5 5.9668 7.29 5.9668 10.8V21.6C5.9668 25.11 9.0668 27.9 12.9668 27.9H24.9668C28.8668 27.9 31.9668 25.11 31.9668 21.6V10.8C31.9668 7.29 28.8668 4.5 24.9668 4.5Z" stroke="white" stroke-width="2" stroke-miterlimit="10" stroke-linecap="round" stroke-linejoin="round"/>
<path d="M25.9668 9.89961C26.5191 9.89961 26.9668 9.49667 26.9668 8.99961C26.9668 8.50255 26.5191 8.09961 25.9668 8.09961C25.4145 8.09961 24.9668 8.50255 24.9668 8.99961C24.9668 9.49667 25.4145 9.89961 25.9668 9.89961Z" fill="white"/>
<path d="M18.9668 21.6008C22.2805 21.6008 24.9668 19.1831 24.9668 16.2008C24.9668 13.2184 22.2805 10.8008 18.9668 10.8008C15.6531 10.8008 12.9668 13.2184 12.9668 16.2008C12.9668 19.1831 15.6531 21.6008 18.9668 21.6008Z" stroke="white" stroke-width="2" stroke-miterlimit="10" stroke-linecap="round" stroke-linejoin="round"/>
</svg>
