<svg width="31" height="30" viewBox="0 0 31 30" fill="none" xmlns="http://www.w3.org/2000/svg">
<path d="M30.6372 7.48C30.2372 7.74 29.6672 7.98 29.4272 8.25C29.3372 8.34 29.2872 8.44 29.3072 8.54V9.57L29.0072 10.58L28.7072 11.58L28.3772 12.68L27.6972 14.93L27.0372 17.15L26.5372 18.82C26.5372 19.08 26.5272 19.34 26.5072 19.59C26.4372 20.55 26.2372 21.47 25.9172 22.33C25.7272 22.86 25.4972 23.37 25.2172 23.85C25.1172 24.04 24.9972 24.23 24.8772 24.41C24.4772 25.04 23.9972 25.62 23.4672 26.13C23.0572 26.54 22.6072 26.92 22.1172 27.24C22.1172 27.24 22.1172 27.24 22.1072 27.24C22.0272 27.31 21.9372 27.37 21.8372 27.42C21.5272 27.63 21.1972 27.81 20.8572 27.97C20.6272 28.09 20.3972 28.19 20.1572 28.28C20.1072 28.31 20.0472 28.33 19.9972 28.35C19.4272 28.62 18.7672 28.8 18.1072 28.89C18.0672 28.9 18.0372 28.9 17.9972 28.91C17.5972 28.98 17.2072 29.04 16.8072 29.07C16.6272 29.09 16.4372 29.1 16.2572 29.1L15.5472 29.06L12.1272 28.88C12.1272 28.87 12.1172 28.88 12.1172 28.88L10.3972 28.79C10.2672 28.79 10.1272 28.79 9.99719 28.78C9.45719 28.76 8.93719 28.7 8.41719 28.59C8.40719 28.59 8.40719 28.59 8.40719 28.59C7.45719 28.41 6.54719 28.09 5.69719 27.66C5.22719 27.42 4.76719 27.15 4.33719 26.84C4.15719 26.71 3.98719 26.57 3.81719 26.42C3.33719 26.02 2.90719 25.59 2.50719 25.15C2.44719 25.09 2.39719 25.03 2.34719 24.97C2.28719 24.91 2.22719 24.84 2.17719 24.78C1.79719 24.3 1.47719 23.81 1.21719 23.29C0.977188 22.83 0.787188 22.34 0.637188 21.8C0.577188 21.61 0.527188 21.43 0.487188 21.23C0.477188 21.22 0.467188 21.2 0.467188 21.18C0.367188 20.77 0.277188 20.34 0.227188 19.91C0.167188 19.58 0.137188 19.25 0.137188 18.91C0.117188 18.78 0.117188 18.64 0.117188 18.51L2.02719 15.56L3.89719 12.68L4.74719 11.37L5.51719 10.19L5.77719 9.78V8.75C5.79719 8.52 5.80719 8.28 5.79719 8.06C5.78719 7.36 5.64719 6.68 5.41719 6.03C5.19719 5.34 4.88719 4.69 4.56719 4.09C4.18719 3.4 3.78719 2.78 3.45719 2.22C2.96719 1.4 2.62719 0.73 2.71719 0.26C3.43719 0.0900002 4.19719 0 4.96719 0H20.9672C25.1472 0 28.7472 2.6 30.2372 6.26C30.3972 6.65 30.5372 7.06 30.6372 7.48Z" fill="#304FFE"/>
</svg>
